<svg xmlns="http://www.w3.org/2000/svg" xmlns:xlink="http://www.w3.org/1999/xlink" width="500" zoomAndPan="magnify" viewBox="0 0 375 374.999991" height="500" preserveAspectRatio="xMidYMid meet" version="1.0"><defs><clipPath id="7e3c98cd26"><path d="M 105.609375 80.84375 L 269.109375 80.84375 L 269.109375 267.59375 L 105.609375 267.59375 Z M 105.609375 80.84375 " clip-rule="nonzero"/></clipPath></defs><rect x="-37.5" width="450" fill="#ffffff" y="-37.499999" height="449.999989" fill-opacity="1"/><rect x="-37.5" width="450" fill="#ffffff" y="-37.499999" height="449.999989" fill-opacity="1"/><path fill="#000000" d="M 142.953125 266.183594 C 150.539062 266.09375 158.164062 265.972656 165.664062 265.078125 C 168.105469 265.320312 172.414062 267.597656 173.136719 264.015625 C 173.753906 261.097656 171.59375 258.582031 172.535156 255.476562 C 172.910156 248.164062 173.953125 240.746094 176.8125 233.980469 C 180.507812 233.113281 185.15625 233.710938 189.214844 233.410156 C 193.183594 233.054688 192.726562 229.695312 192.675781 226.609375 C 192.949219 218.507812 192.660156 210.34375 194.78125 202.449219 C 197.917969 186.492188 201.957031 170.726562 205.136719 154.777344 C 212.433594 147.824219 220.171875 141.28125 226.160156 133.101562 C 232.027344 126.160156 236.769531 118.292969 243.632812 112.226562 C 246.179688 110.480469 246.027344 107.089844 249.109375 105.902344 C 252.433594 103.238281 255.824219 100.703125 260.035156 99.675781 C 263.179688 96.546875 267.523438 93.613281 268.523438 89.214844 C 266.898438 80.871094 256.582031 87.464844 253.433594 91.792969 C 246.882812 97.753906 238.367188 99.703125 230.457031 101.792969 C 225.734375 105.664062 220.558594 109.25 216.875 114.105469 C 214.5 119.355469 208.445312 120.222656 204.632812 123.996094 C 201.417969 126.230469 197.386719 127.03125 194.25 129.898438 C 189.027344 137.183594 180.757812 141.171875 174.277344 147.167969 C 171.933594 149.632812 166.222656 149.824219 165.929688 145.609375 C 165.464844 141.355469 171.011719 140.714844 173.558594 138.433594 C 181.148438 133.613281 188.421875 128.023438 194.734375 121.761719 C 199.28125 119.421875 204.121094 117.796875 208.839844 115.851562 C 210.324219 112.148438 208.433594 108.757812 204.273438 108.277344 C 201.019531 107.8125 199.203125 111.625 197.25 113.566406 C 194.597656 116.207031 192.039062 113.894531 189.222656 115.226562 C 184.054688 117.757812 178.335938 117.613281 172.726562 118.03125 C 166.515625 121.882812 159.464844 123.476562 152.308594 124.304688 C 148.453125 125.074219 143.839844 122.96875 140.9375 126.449219 C 137.363281 128.769531 135.457031 133.46875 131.617188 135.160156 C 127.199219 134.878906 127.277344 127.9375 125.144531 124.515625 C 124.050781 121.550781 122.695312 118.90625 119.128906 118.988281 C 113.9375 117.453125 107.644531 120.703125 107.015625 126.359375 C 106.1875 129.90625 107.429688 133.230469 109.320312 136.210938 C 108.09375 139.257812 110.917969 143.40625 114.261719 142.960938 C 117.8125 144.183594 119.734375 147.765625 122.492188 150.136719 C 124.390625 157.789062 122.550781 166.0625 125.613281 173.539062 C 126.996094 179.347656 132.371094 182.757812 137.007812 185.9375 C 139.941406 188.269531 143.8125 190.242188 147.519531 189.226562 C 149.738281 187.378906 151.746094 185.332031 154.875 185.410156 C 157.933594 185.503906 162.421875 184.230469 161.925781 180.394531 C 160.945312 177.480469 166.539062 175.566406 166.933594 177.105469 C 167.035156 184.125 167.375 191.320312 166.914062 198.242188 C 164.625 201.640625 163.210938 205.339844 163.011719 209.457031 C 162.597656 217.285156 163.03125 225.21875 163.453125 233.0625 C 163.976562 238.992188 164.183594 244.992188 163.808594 250.917969 C 162.238281 259.1875 154.289062 261.519531 147.085938 263.109375 C 145.449219 263.945312 143.4375 264.097656 142.957031 266.183594 Z M 142.953125 266.183594 " fill-opacity="1" fill-rule="nonzero"/><g clip-path="url(#7e3c98cd26)"><path stroke-linecap="butt" transform="matrix(0.71703, 0, 0, 0.717717, -64.324239, -39.964128)" fill="none" stroke-linejoin="miter" d="M 289.077499 426.557655 C 299.657158 426.432475 310.291295 426.263755 320.751102 425.017398 C 324.155987 425.35484 330.164929 428.527878 331.172775 423.53701 C 332.03353 419.471385 329.020887 415.966348 330.333811 411.639478 C 330.856801 401.450923 332.311368 391.115418 336.29917 381.688827 C 341.452804 380.480569 347.935705 381.313288 353.595986 380.894207 C 359.130967 380.39893 358.493573 375.718291 358.422751 371.418633 C 358.804098 360.130672 358.40096 348.75563 361.359124 337.756127 C 365.733721 315.523089 371.366763 293.556739 375.801285 271.334587 C 385.977806 261.646752 396.769929 252.53039 405.121432 241.133577 C 413.304052 231.462069 419.9177 220.500665 429.489513 212.048301 C 433.04149 209.615457 432.829025 204.891276 437.127352 203.236725 C 441.763443 199.524869 446.492148 195.992619 452.364894 194.561214 C 456.750386 190.201688 462.808357 186.114292 464.202998 179.98592 C 461.936707 168.360518 447.549024 177.547633 443.158084 183.578039 C 434.022097 191.883453 422.145857 194.599312 411.114029 197.511105 C 404.52762 202.904726 397.309263 207.901036 392.171973 214.666193 C 388.8597 221.981053 380.415585 223.189311 375.098517 228.446867 C 370.614964 231.560036 364.992818 232.67577 360.618221 236.670642 C 353.334491 246.821098 341.801464 252.377997 332.763537 260.732394 C 329.494847 264.166677 321.53014 264.433365 321.121554 258.560795 C 320.473264 252.633799 328.209163 251.741212 331.761139 248.562731 C 342.346246 241.846558 352.490079 234.058192 361.29375 225.333697 C 367.635008 222.073577 374.384853 219.809454 380.965815 217.099037 C 383.035985 211.939449 380.399242 207.215268 374.597318 206.545828 C 370.059287 205.898158 367.526052 211.21014 364.802144 213.915114 C 361.103077 217.594314 357.534757 214.372293 353.606882 216.228221 C 346.399421 219.755028 338.423818 219.553652 330.600754 220.13601 C 321.938726 225.502418 312.105418 227.723 302.125019 228.876832 C 296.748024 229.949025 290.314153 227.015462 286.266426 231.864822 C 281.281674 235.097729 278.62314 241.645182 273.267936 244.001829 C 267.106456 243.609962 267.215413 233.938454 264.240905 229.170733 C 262.715516 225.039797 260.825124 221.355154 255.851268 221.469448 C 248.61112 219.330505 239.834689 223.858752 238.95759 231.739642 C 237.802653 236.681527 239.535059 241.313183 242.171802 245.46589 C 240.461187 249.711121 244.399958 255.491166 249.063289 254.87071 C 254.015354 256.574245 256.69568 261.565113 260.541838 264.868773 C 263.189477 275.530835 260.623555 287.05827 264.894643 297.475414 C 266.82317 305.568567 274.319365 310.31996 280.785923 314.75024 C 284.877233 317.999474 290.276019 320.747989 295.445996 319.332912 C 298.540356 316.758561 301.340533 313.906636 305.704234 314.015488 C 309.969874 314.146111 316.229415 312.371822 315.537542 307.027184 C 314.17014 302.967002 321.971413 300.300126 322.521643 302.444512 C 322.663286 312.224871 323.137246 322.250148 322.494404 331.894443 C 319.301983 336.629508 317.329874 341.783654 317.052035 347.520159 C 316.474567 358.427137 317.079274 369.481066 317.667638 380.409815 C 318.397646 388.671688 318.68638 397.031528 318.16339 405.287959 C 315.973368 416.809951 304.887062 420.059186 294.841289 422.274326 C 292.558654 423.439043 289.753028 423.651305 289.082947 426.557655 Z M 289.077499 426.557655 " stroke="#000000" stroke-width="1.173" stroke-opacity="1" stroke-miterlimit="4"/></g></svg>